<?xml version="1.0" encoding="UTF-8" standalone="no"?>
<!DOCTYPE svg PUBLIC "-//W3C//DTD SVG 1.1//EN"
 "http://www.w3.org/Graphics/SVG/1.1/DTD/svg11.dtd">
<!-- Generated by graphviz version 2.38.0 (20140413.2041)
 -->
<!-- Title: template Pages: 1 -->
<svg width="664pt" height="683pt"
 viewBox="0.00 0.00 664.00 683.00" xmlns="http://www.w3.org/2000/svg" xmlns:xlink="http://www.w3.org/1999/xlink">
<g id="graph0" class="graph" transform="scale(1 1) rotate(0) translate(4 679)">
<title>template</title>
<polygon fill="white" stroke="none" points="-4,4 -4,-679 660,-679 660,4 -4,4"/>
<!-- pre_exec -->
<g id="node1" class="node"><title>pre_exec</title>
<ellipse fill="orange" stroke="black" cx="94" cy="-657" rx="42.4939" ry="18"/>
<text text-anchor="middle" x="94" y="-653.3" font-family="Times,serif" font-size="14.00">pre_exec</text>
</g>
<!-- expect -->
<g id="node2" class="node"><title>expect</title>
<ellipse fill="blue" stroke="black" cx="343" cy="-570" rx="33.5952" ry="18"/>
<text text-anchor="middle" x="343" y="-566.3" font-family="Times,serif" font-size="14.00" fill="white">expect</text>
</g>
<!-- pre_exec&#45;&gt;expect -->
<g id="edge1" class="edge"><title>pre_exec&#45;&gt;expect</title>
<path fill="none" stroke="black" d="M126.043,-645.062C172.124,-629.331 256.92,-600.385 305.739,-583.72"/>
<polygon fill="black" stroke="black" points="306.959,-587.002 315.292,-580.459 304.697,-580.377 306.959,-587.002"/>
<text text-anchor="middle" x="293" y="-609.8" font-family="Times,serif" font-size="14.00">{cmd,cases,answers}</text>
</g>
<!-- fatal_error -->
<g id="node3" class="node"><title>fatal_error</title>
<ellipse fill="red" stroke="black" cx="195" cy="-18" rx="48.1917" ry="18"/>
<text text-anchor="middle" x="195" y="-14.3" font-family="Times,serif" font-size="14.00" fill="white">fatal_error</text>
</g>
<!-- pre_exec&#45;&gt;fatal_error -->
<g id="edge2" class="edge"><title>pre_exec&#45;&gt;fatal_error</title>
<path fill="none" stroke="black" d="M64.5157,-644.082C36.9486,-630.758 0,-606.313 0,-571 0,-571 0,-571 0,-104 0,-43.7288 79.2504,-25.7589 136.706,-20.6507"/>
<polygon fill="black" stroke="black" points="137.1,-24.1307 146.798,-19.8633 136.556,-17.1519 137.1,-24.1307"/>
<text text-anchor="middle" x="9.5" y="-333.8" font-family="Times,serif" font-size="14.00">fail</text>
</g>
<!-- result -->
<g id="node4" class="node"><title>result</title>
<ellipse fill="blue" stroke="black" cx="386" cy="-294" rx="30.5947" ry="18"/>
<text text-anchor="middle" x="386" y="-290.3" font-family="Times,serif" font-size="14.00" fill="white">result</text>
</g>
<!-- expect&#45;&gt;result -->
<g id="edge17" class="edge"><title>expect&#45;&gt;result</title>
<path fill="none" stroke="black" d="M372.41,-560.818C400.041,-551.391 439.784,-532.933 458,-501 493.226,-439.248 438.123,-357.34 406.189,-318.005"/>
<polygon fill="black" stroke="black" points="408.851,-315.733 399.767,-310.281 403.468,-320.208 408.851,-315.733"/>
<text text-anchor="middle" x="478" y="-428.3" font-family="Times,serif" font-size="14.00">eof</text>
</g>
<!-- hard_error -->
<g id="node8" class="node"><title>hard_error</title>
<ellipse fill="red" stroke="black" cx="90" cy="-381" rx="48.1917" ry="18"/>
<text text-anchor="middle" x="90" y="-377.3" font-family="Times,serif" font-size="14.00" fill="white">hard_error</text>
</g>
<!-- expect&#45;&gt;hard_error -->
<g id="edge8" class="edge"><title>expect&#45;&gt;hard_error</title>
<path fill="none" stroke="black" d="M309.637,-566.734C240.367,-561.188 85.2752,-544.097 60,-501 41.1135,-468.796 47.0473,-452.014 60,-417 61.4274,-413.141 63.4912,-409.421 65.8783,-405.939"/>
<polygon fill="black" stroke="black" points="68.8342,-407.844 72.2996,-397.832 63.347,-403.498 68.8342,-407.844"/>
<text text-anchor="middle" x="85.5" y="-486.8" font-family="Times,serif" font-size="14.00">unknown</text>
<text text-anchor="middle" x="85.5" y="-471.8" font-family="Times,serif" font-size="14.00">(case)</text>
</g>
<!-- expect&#45;&gt;hard_error -->
<g id="edge9" class="edge"><title>expect&#45;&gt;hard_error</title>
<path fill="none" stroke="black" d="M313.785,-560.899C277.909,-550.235 215.928,-529.452 168,-501 135.998,-482.002 123.168,-478.901 104,-447 97.1945,-435.674 93.676,-421.48 91.8656,-409.249"/>
<polygon fill="black" stroke="black" points="95.3192,-408.648 90.6746,-399.126 88.3671,-409.466 95.3192,-408.648"/>
<text text-anchor="middle" x="194" y="-479.3" font-family="Times,serif" font-size="14.00">fullbuffer</text>
</g>
<!-- soft_error -->
<g id="node9" class="node"><title>soft_error</title>
<ellipse fill="pink" stroke="black" cx="472" cy="-192" rx="45.4919" ry="18"/>
<text text-anchor="middle" x="472" y="-188.3" font-family="Times,serif" font-size="14.00" fill="red">soft_error</text>
</g>
<!-- expect&#45;&gt;soft_error -->
<g id="edge10" class="edge"><title>expect&#45;&gt;soft_error</title>
<path fill="none" stroke="black" d="M377.141,-568.954C433.296,-566.885 539,-553.729 539,-484 539,-484 539,-484 539,-293 539,-263.449 541.677,-252.396 525,-228 520.764,-221.804 515.035,-216.429 508.905,-211.876"/>
<polygon fill="black" stroke="black" points="510.656,-208.836 500.4,-206.177 506.759,-214.651 510.656,-208.836"/>
<text text-anchor="middle" x="560.5" y="-377.3" font-family="Times,serif" font-size="14.00">timeout</text>
</g>
<!-- match -->
<g id="node10" class="node"><title>match</title>
<ellipse fill="blue" stroke="black" cx="261" cy="-483" rx="32.4942" ry="18"/>
<text text-anchor="middle" x="261" y="-479.3" font-family="Times,serif" font-size="14.00" fill="white">match</text>
</g>
<!-- expect&#45;&gt;match -->
<g id="edge11" class="edge"><title>expect&#45;&gt;match</title>
<path fill="none" stroke="black" d="M320.627,-556.494C311.105,-550.487 300.305,-542.7 292,-534 285.06,-526.73 278.875,-517.661 273.89,-509.25"/>
<polygon fill="black" stroke="black" points="276.922,-507.502 268.972,-500.498 270.819,-510.931 276.922,-507.502"/>
<text text-anchor="middle" x="310.5" y="-522.8" font-family="Times,serif" font-size="14.00">{case}</text>
</g>
<!-- post_exec -->
<g id="node5" class="node"><title>post_exec</title>
<ellipse fill="orange" stroke="black" cx="303" cy="-192" rx="46.2923" ry="18"/>
<text text-anchor="middle" x="303" y="-188.3" font-family="Times,serif" font-size="14.00">post_exec</text>
</g>
<!-- result&#45;&gt;post_exec -->
<g id="edge3" class="edge"><title>result&#45;&gt;post_exec</title>
<path fill="none" stroke="black" d="M369.988,-278.573C363.525,-272.465 356.156,-265.122 350,-258 339.155,-245.453 328.228,-230.512 319.644,-218.121"/>
<polygon fill="black" stroke="black" points="322.369,-215.906 313.841,-209.619 316.587,-219.852 322.369,-215.906"/>
<text text-anchor="middle" x="375.5" y="-239.3" font-family="Times,serif" font-size="14.00">@default</text>
</g>
<!-- result&#45;&gt;soft_error -->
<g id="edge13" class="edge"><title>result&#45;&gt;soft_error</title>
<path fill="none" stroke="black" d="M399.438,-277.375C413.347,-261.201 435.255,-235.727 451.362,-216.998"/>
<polygon fill="black" stroke="black" points="454.22,-219.042 458.087,-209.178 448.913,-214.478 454.22,-219.042"/>
<text text-anchor="middle" x="483.5" y="-246.8" font-family="Times,serif" font-size="14.00">empty</text>
<text text-anchor="middle" x="483.5" y="-231.8" font-family="Times,serif" font-size="14.00">{outfile}(sync)</text>
</g>
<!-- post_exec&#45;&gt;fatal_error -->
<g id="edge7" class="edge"><title>post_exec&#45;&gt;fatal_error</title>
<path fill="none" stroke="black" d="M284.174,-175.274C269.73,-162.416 250.106,-143.129 237,-123 221.224,-98.7699 209.619,-67.6599 202.654,-45.8024"/>
<polygon fill="black" stroke="black" points="205.979,-44.7082 199.696,-36.1779 199.288,-46.7649 205.979,-44.7082"/>
<text text-anchor="middle" x="246.5" y="-101.3" font-family="Times,serif" font-size="14.00">fail</text>
</g>
<!-- commit -->
<g id="node6" class="node"><title>commit</title>
<ellipse fill="orange" stroke="black" cx="303" cy="-105" rx="38.1938" ry="18"/>
<text text-anchor="middle" x="303" y="-101.3" font-family="Times,serif" font-size="14.00">commit</text>
</g>
<!-- post_exec&#45;&gt;commit -->
<g id="edge4" class="edge"><title>post_exec&#45;&gt;commit</title>
<path fill="none" stroke="black" d="M303,-173.799C303,-162.163 303,-146.548 303,-133.237"/>
<polygon fill="black" stroke="black" points="306.5,-133.175 303,-123.175 299.5,-133.175 306.5,-133.175"/>
<text text-anchor="middle" x="327.5" y="-144.8" font-family="Times,serif" font-size="14.00">{outfile}</text>
</g>
<!-- commit&#45;&gt;fatal_error -->
<g id="edge6" class="edge"><title>commit&#45;&gt;fatal_error</title>
<path fill="none" stroke="black" d="M284.188,-89.1941C267.16,-75.7928 241.865,-55.8844 222.558,-40.6888"/>
<polygon fill="black" stroke="black" points="224.714,-37.932 214.691,-34.4976 220.385,-43.4327 224.714,-37.932"/>
<text text-anchor="middle" x="265.5" y="-57.8" font-family="Times,serif" font-size="14.00">fail</text>
</g>
<!-- processed -->
<g id="node7" class="node"><title>processed</title>
<ellipse fill="green" stroke="black" cx="307" cy="-18" rx="45.4919" ry="18"/>
<text text-anchor="middle" x="307" y="-14.3" font-family="Times,serif" font-size="14.00">processed</text>
</g>
<!-- commit&#45;&gt;processed -->
<g id="edge5" class="edge"><title>commit&#45;&gt;processed</title>
<path fill="none" stroke="black" d="M303.809,-86.799C304.357,-75.1626 305.092,-59.5479 305.718,-46.2368"/>
<polygon fill="black" stroke="black" points="309.218,-46.3289 306.192,-36.1754 302.225,-45.9998 309.218,-46.3289"/>
<text text-anchor="middle" x="326" y="-57.8" font-family="Times,serif" font-size="14.00">sucess!</text>
</g>
<!-- hard_error&#45;&gt;fatal_error -->
<g id="edge16" class="edge"><title>hard_error&#45;&gt;fatal_error</title>
<path fill="none" stroke="black" d="M115.973,-365.804C138.663,-351.29 168,-326.445 168,-295 168,-295 168,-295 168,-104 168,-83.6125 175.143,-61.7107 182.081,-45.2458"/>
<polygon fill="black" stroke="black" points="185.435,-46.3176 186.308,-35.7588 179.041,-43.4683 185.435,-46.3176"/>
<text text-anchor="middle" x="179" y="-188.3" font-family="Times,serif" font-size="14.00">is_a</text>
</g>
<!-- soft_error&#45;&gt;expect -->
<g id="edge14" class="edge"><title>soft_error&#45;&gt;expect</title>
<path fill="none" stroke="black" d="M510.742,-201.699C553.995,-213.97 618,-240.925 618,-293 618,-484 618,-484 618,-484 618,-531.906 463.744,-555.732 386.293,-564.676"/>
<polygon fill="black" stroke="black" points="385.447,-561.249 375.898,-565.84 386.226,-568.206 385.447,-561.249"/>
<text text-anchor="middle" x="637" y="-384.8" font-family="Times,serif" font-size="14.00">retry</text>
<text text-anchor="middle" x="637" y="-369.8" font-family="Times,serif" font-size="14.00">{cmd}</text>
</g>
<!-- soft_error&#45;&gt;fatal_error -->
<g id="edge15" class="edge"><title>soft_error&#45;&gt;fatal_error</title>
<path fill="none" stroke="black" d="M462.365,-174.303C444.382,-144.789 402.712,-83.7182 350,-54 311.805,-32.4662 295.649,-46.1796 253,-36 248.924,-35.0271 244.708,-33.944 240.495,-32.8088"/>
<polygon fill="black" stroke="black" points="241.31,-29.4026 230.738,-30.0926 239.433,-36.1462 241.31,-29.4026"/>
<text text-anchor="middle" x="450.5" y="-101.3" font-family="Times,serif" font-size="14.00">retries&gt;3</text>
</g>
<!-- match&#45;&gt;hard_error -->
<g id="edge12" class="edge"><title>match&#45;&gt;hard_error</title>
<path fill="none" stroke="black" d="M231.534,-475.02C196.574,-466.562 141.991,-452.733 134,-447 120.146,-437.061 109.323,-421.309 101.878,-407.802"/>
<polygon fill="black" stroke="black" points="104.978,-406.175 97.2682,-398.908 98.7629,-409.397 104.978,-406.175"/>
<text text-anchor="middle" x="159.5" y="-435.8" font-family="Times,serif" font-size="14.00">unknown</text>
<text text-anchor="middle" x="159.5" y="-420.8" font-family="Times,serif" font-size="14.00">(answer)</text>
</g>
<!-- answer -->
<g id="node11" class="node"><title>answer</title>
<ellipse fill="blue" stroke="black" cx="333" cy="-381" rx="35.9954" ry="18"/>
<text text-anchor="middle" x="333" y="-377.3" font-family="Times,serif" font-size="14.00" fill="white">answer</text>
</g>
<!-- match&#45;&gt;answer -->
<g id="edge18" class="edge"><title>match&#45;&gt;answer</title>
<path fill="none" stroke="black" d="M251.097,-465.742C243.979,-451.744 237.207,-431.559 247,-417 256.537,-402.822 272.921,-394.385 288.846,-389.365"/>
<polygon fill="black" stroke="black" points="289.93,-392.696 298.637,-386.66 288.066,-385.949 289.93,-392.696"/>
<text text-anchor="middle" x="258.5" y="-428.3" font-family="Times,serif" font-size="14.00">skip</text>
</g>
<!-- match&#45;&gt;answer -->
<g id="edge19" class="edge"><title>match&#45;&gt;answer</title>
<path fill="none" stroke="black" d="M267.117,-465.217C272.62,-451.446 281.588,-431.866 293,-417 296.744,-412.123 301.248,-407.414 305.864,-403.116"/>
<polygon fill="black" stroke="black" points="308.41,-405.538 313.621,-396.313 303.795,-400.275 308.41,-405.538"/>
<text text-anchor="middle" x="302" y="-428.3" font-family="Times,serif" font-size="14.00">chr</text>
</g>
<!-- match&#45;&gt;answer -->
<g id="edge20" class="edge"><title>match&#45;&gt;answer</title>
<path fill="none" stroke="black" d="M284.162,-470.092C293.609,-464.241 303.946,-456.411 311,-447 319.318,-435.903 324.62,-421.458 327.929,-409.005"/>
<polygon fill="black" stroke="black" points="331.369,-409.666 330.263,-399.129 324.557,-408.057 331.369,-409.666"/>
<text text-anchor="middle" x="350.5" y="-435.8" font-family="Times,serif" font-size="14.00">save</text>
<text text-anchor="middle" x="350.5" y="-420.8" font-family="Times,serif" font-size="14.00">{outfile}</text>
</g>
<!-- match&#45;&gt;answer -->
<g id="edge21" class="edge"><title>match&#45;&gt;answer</title>
<path fill="none" stroke="black" d="M231.965,-474.526C217.901,-469.284 202.296,-460.694 194,-447 187.091,-435.596 185.803,-427.516 194,-417 205.557,-402.173 251.888,-392.656 287.921,-387.346"/>
<polygon fill="black" stroke="black" points="288.832,-390.753 298.248,-385.895 287.858,-383.821 288.832,-390.753"/>
<text text-anchor="middle" x="216.5" y="-428.3" font-family="Times,serif" font-size="14.00">&lt;other&gt;</text>
</g>
<!-- answer&#45;&gt;expect -->
<g id="edge22" class="edge"><title>answer&#45;&gt;expect</title>
<path fill="none" stroke="black" d="M357.491,-394.475C365.904,-400.12 374.365,-407.649 379,-417 384.922,-428.946 384.71,-434.951 379,-447 373.59,-458.416 363.161,-453.971 357,-465 343.791,-488.646 341.202,-519.904 341.354,-541.956"/>
<polygon fill="black" stroke="black" points="337.855,-542.063 341.613,-551.969 344.853,-541.882 337.855,-542.063"/>
<text text-anchor="middle" x="378.5" y="-486.8" font-family="Times,serif" font-size="14.00">jump</text>
<text text-anchor="middle" x="378.5" y="-471.8" font-family="Times,serif" font-size="14.00">{cases}</text>
</g>
<!-- answer&#45;&gt;expect -->
<g id="edge23" class="edge"><title>answer&#45;&gt;expect</title>
<path fill="none" stroke="black" d="M362.505,-391.3C374.922,-396.767 388.262,-405.018 396,-417 407.614,-434.983 399.11,-443.611 400,-465 400.665,-480.986 405.469,-485.964 400,-501 393.547,-518.743 380.208,-535.083 368.055,-547.297"/>
<polygon fill="black" stroke="black" points="365.505,-544.894 360.714,-554.344 370.352,-549.944 365.505,-544.894"/>
<text text-anchor="middle" x="428.5" y="-479.3" font-family="Times,serif" font-size="14.00">@default</text>
</g>
<!-- answer&#45;&gt;result -->
<g id="edge24" class="edge"><title>answer&#45;&gt;result</title>
<path fill="none" stroke="black" d="M343.219,-363.611C350.967,-351.185 361.747,-333.897 370.547,-319.783"/>
<polygon fill="black" stroke="black" points="373.671,-321.388 375.992,-311.05 367.731,-317.684 373.671,-321.388"/>
<text text-anchor="middle" x="378.5" y="-333.8" font-family="Times,serif" font-size="14.00">finish</text>
</g>
</g>
</svg>
